o object0
v 8.32853 22.0997 -31.6869
v 8.32853 22.0997 -23.9991
v 16.0039 22.0997 -31.6869
v 8.32853 20.7888 -31.6869
v 8.32853 21.2978 -31.6869
v 16.0039 20.7888 -31.6869
v 8.32853 20.7888 -23.9991
v 8.32853 21.2978 -23.9991
v 16.0039 20.7888 -23.9991
v 16.0039 21.2978 -23.9991
v 16.0039 20.7888 -31.6869
v 16.0039 21.2978 -31.6869
v 15.7853 20.4087 -24.2181
v 8.54721 20.4087 -24.2181
v 15.7853 20.4087 -24.2181
v 8.54721 20.4087 -31.4679
v 15.7853 20.4087 -31.4679
v 15.2326 20.1172 -24.7717
v 15.2326 20.1172 -30.9143
v 9.09987 20.1172 -24.7717
v 15.2326 20.1172 -24.7717
v 9.09987 20.1172 -30.9143
v 9.09987 20.1172 -24.7717
v 15.2326 20.1172 -30.9143
v 9.09987 20.1172 -30.9143
v 11.0772 -0.246066 -25.2371
v 11.0772 18.6651 -25.2371
v 9.56647 -0.246066 -26.7478
v 13.2136 -0.246066 -25.2371
v 13.2136 18.6651 -25.2371
v 14.7243 -0.246066 -26.7478
v 14.7243 18.6651 -26.7478
v 13.2136 -0.246066 -25.2371
v 14.7243 -0.246065 -28.8842
v 14.7243 18.6651 -28.8842
v 13.2136 -0.246065 -30.3949
v 13.2136 18.6651 -30.3949
v 11.0772 -0.246065 -30.3949
v 11.0772 18.6651 -30.3949
v 9.56647 -0.246065 -28.8842
v 9.56647 18.6651 -28.8842
v 9.56647 18.6651 -26.7478
v 11.0772 19.1226 -25.2371
v 11.0119 19.25 -25.0796
v 9.56647 19.1226 -26.7478
v 13.2136 19.1226 -25.2371
v 13.2788 19.25 -25.0796
v 14.7243 19.1226 -26.7478
v 14.8818 19.25 -26.6825
v 14.7243 19.1226 -28.8842
v 14.8818 19.25 -28.9494
v 13.2136 19.1226 -30.3949
v 13.2788 19.25 -30.5524
v 11.0772 19.1226 -30.3949
v 11.0119 19.25 -30.5524
v 9.56647 19.1226 -28.8842
v 9.40903 19.25 -28.9494
v 9.56647 19.1226 -26.7478
v 9.40903 19.25 -26.6825
v 11.0571 19.6323 -25.1886
v 10.9842 19.926 -25.0125
v 9.51797 19.6323 -26.7277
v 13.2337 19.6323 -25.1886
v 13.3066 19.926 -25.0125
v 14.7728 19.6323 -26.7277
v 14.9489 19.926 -26.6548
v 14.7728 19.6323 -28.9043
v 14.9489 19.926 -28.9772
v 13.2337 19.6323 -30.4434
v 13.3066 19.9261 -30.6195
v 11.0571 19.6323 -30.4434
v 10.9842 19.9261 -30.6195
v 9.51797 19.6323 -28.9043
v 9.34191 19.926 -28.9772
v 9.51797 19.6323 -26.7277
v 9.34191 19.926 -26.6548
v 10.9842 19.926 -25.0125
v 9.34191 19.926 -26.6548
v 9.34191 19.926 -26.6548
v 10.9842 19.9261 -30.6195
v 9.34191 19.926 -28.9772
v 14.9489 19.926 -28.9772
v 13.3066 19.9261 -30.6195
v 14.9489 19.926 -26.6548
v 13.3066 19.926 -25.0125
v 14.9489 19.926 -26.6548
v 10.9738 18.8939 -24.9876
v 9.31696 18.8939 -26.6444
v 11.0772 18.6651 -25.2371
v 13.317 18.8939 -24.9876
v 13.2136 18.6651 -25.2371
v 14.9738 18.8939 -26.6444
v 14.7243 18.6651 -26.7478
v 14.9738 18.8939 -28.9876
v 14.7243 18.6651 -28.8842
v 13.317 18.8939 -30.6444
v 10.9738 18.8939 -30.6444
v 13.2136 18.6651 -30.3949
v 9.31696 18.8939 -28.9876
v 10.9738 18.8939 -30.6444
v 9.56647 18.6651 -28.8842
v 9.31696 18.8939 -26.6444
v 9.56647 18.6651 -26.7478
v 9.56647 19.1226 -26.7478
v 11.0513 19.3774 -25.1747
v 13.2395 19.3774 -25.1747
v 14.7867 19.3774 -26.7219
v 14.7867 19.3774 -28.91
v 13.2395 19.3774 -30.4573
v 11.0513 19.3774 -30.4573
v 9.5041 19.3774 -28.91
v 9.5041 19.3774 -26.7219
v 9.40903 19.25 -26.6825
v 9.5041 19.3774 -26.7219
v 8.42138 21.2978 -31.5941
v 8.42138 21.5209 -31.5941
v 15.9111 21.2978 -31.5941
v 8.42138 21.2978 -24.092
v 8.42138 21.5209 -24.092
v 8.42138 21.2978 -31.5941
v 15.9111 21.2978 -24.092
v 15.9111 21.5209 -24.092
v 8.42138 21.2978 -24.092
v 15.9111 21.2978 -31.5941
v 15.9111 21.5209 -31.5941
v 15.9111 21.2978 -24.092
v 8.32853 22.0997 -31.6869
v 16.0039 22.0997 -31.6869
v 8.32853 21.5209 -31.6869
v 8.32853 22.0997 -23.9991
v 8.32853 22.0997 -31.6869
v 8.32853 21.5209 -23.9991
v 16.0039 22.0997 -23.9991
v 8.32853 22.0997 -23.9991
v 16.0039 21.5209 -23.9991
v 16.0039 22.0997 -31.6869
v 16.0039 22.0997 -23.9991
v 16.0039 21.5209 -31.6869
v 15.9111 21.2978 -31.5941
v 8.32853 21.2978 -31.6869
v 8.32853 21.2978 -23.9991
v 16.0039 21.2978 -31.6869
v 15.9111 21.2978 -31.5941
v 16.0039 21.2978 -23.9991
v 16.0039 21.5209 -31.6869
v 15.9111 21.5209 -31.5941
v 8.32853 21.5209 -31.6869
v 16.0039 21.5209 -23.9991
v 15.9111 21.5209 -24.092
v 16.0039 21.5209 -31.6869
v 8.32853 21.5209 -23.9991
v 8.42138 21.5209 -24.092
v 15.9111 21.5209 -24.092
v 8.32853 21.5209 -31.6869
v 8.42138 21.5209 -31.5941
v 8.32853 21.5209 -23.9991
v 16.0039 22.0997 -23.9991
v 16.0039 21.2978 -31.6869
v 8.32853 21.2978 -31.6869
v 8.32853 21.2978 -23.9991
v 16.0039 21.2978 -23.9991
v 15.7853 20.4087 -31.4679
v 8.54721 20.4087 -24.2181
v 8.54721 20.4087 -31.4679
v 13.2136 18.6651 -25.2371
v 9.34191 19.926 -26.6548
v 9.51797 19.6323 -26.7277
v 9.34191 19.926 -28.9772
v 14.9489 19.926 -28.9772
v 9.56647 18.6651 -26.7478
v 11.0772 18.6651 -30.3949
v 13.317 18.8939 -30.6444
v 15.9111 21.5209 -31.5941
v 8.42138 21.5209 -31.5941
v 8.42138 21.5209 -24.092
v 15.9111 21.5209 -24.092
v 16.0039 21.5209 -31.6869
v 8.32853 21.5209 -31.6869
v 8.32853 21.5209 -23.9991
v 16.0039 21.5209 -23.9991
v 16.0039 21.2978 -31.6869
v 8.32853 21.2978 -31.6869
v 8.42138 21.2978 -24.092
v 15.9111 21.2978 -24.092
v 8.42138 21.5209 -31.5941
v 15.9111 21.5209 -31.5941
v 16.0039 21.5209 -23.9991
v 8.42138 21.5209 -24.092
vt 0.1052 0.2864
vt 0.2969 0.2864
vt 0.1052 0.095
vt 0.0579 0.7441
vt 0.0419 0.7441
vt 0.0579 0.9851
vt 0.0577 0.5056
vt 0.0419 0.5056
vt 0.0577 0.2675
vt 0.0419 0.2675
vt 0.0579 0.026
vt 0.0419 0.026
vt 0.0698 0.2606
vt 0.0694 0.4988
vt 0.0694 0.2743
vt 0.0694 0.7373
vt 0.0698 0.9783
vt 0.0871 0.2432
vt 0.0871 0.0503
vt 0.0866 0.4817
vt 0.0866 0.2914
vt 0.0866 0.7201
vt 0.0866 0.5296
vt 0.0872 0.9609
vt 0.0872 0.7683
vt 0.8927 0.9914
vt 0.8927 0.0997
vt 0.8215 0.9914
vt 0.9935 0.9914
vt 0.9935 0.0997
vt 0.3768 0.9914
vt 0.3768 0.0997
vt 0.3056 0.9914
vt 0.4775 0.9914
vt 0.4775 0.0997
vt 0.5488 0.9914
vt 0.5488 0.0997
vt 0.6495 0.9914
vt 0.6495 0.0997
vt 0.7207 0.9914
vt 0.7207 0.0997
vt 0.8215 0.0997
vt 0.2428 0.0586
vt 0.2428 0.0507
vt 0.1356 0.0586
vt 0.35 0.0586
vt 0.35 0.0507
vt 0.4571 0.0586
vt 0.4571 0.0507
vt 0.5643 0.0586
vt 0.5643 0.0507
vt 0.6715 0.0586
vt 0.6715 0.0507
vt 0.7787 0.0586
vt 0.7787 0.0507
vt 0.8859 0.0586
vt 0.8859 0.0507
vt 0.9931 0.0586
vt 0.9931 0.0507
vt 0.2428 0.0273
vt 0.2428 0.00919998
vt 0.1356 0.0273
vt 0.35 0.0273
vt 0.35 0.00919998
vt 0.4571 0.0273
vt 0.4571 0.00919998
vt 0.5643 0.0273
vt 0.5643 0.00919998
vt 0.6715 0.0273
vt 0.6715 0.00919998
vt 0.7787 0.0273
vt 0.7787 0.00919998
vt 0.8859 0.0273
vt 0.8859 0.00919998
vt 0.9931 0.0273
vt 0.9931 0.00919998
vt 0.0941 0.4232
vt 0.145 0.4742
vt 0.0941 0.588
vt 0.0964 0.8275
vt 0.148 0.7759
vt 0.148 0.952
vt 0.0964 0.9004
vt 0.0961 0.1841
vt 0.0941 0.3512
vt 0.145 0.3002
vt 0.2428 0.0726
vt 0.1356 0.0726
vt 0.2428 0.0867
vt 0.35 0.0726
vt 0.35 0.0867
vt 0.4571 0.0726
vt 0.4571 0.0867
vt 0.5643 0.0726
vt 0.5643 0.0867
vt 0.6715 0.0726
vt 0.7787 0.0726
vt 0.6715 0.0867
vt 0.8859 0.0726
vt 0.7787 0.0726
vt 0.8859 0.0867
vt 0.9931 0.0726
vt 0.9931 0.0867
vt 0.1356 0.0586
vt 0.2428 0.0429
vt 0.35 0.0429
vt 0.4571 0.0429
vt 0.5643 0.0429
vt 0.6715 0.0429
vt 0.7787 0.0429
vt 0.8859 0.0429
vt 0.1356 0.0429
vt 0.1356 0.0507
vt 0.9931 0.0429
vt 0.0389 0.7441
vt 0.0318 0.7441
vt 0.0389 0.9822
vt 0.0389 0.5056
vt 0.0318 0.5056
vt 0.0389 0.7441
vt 0.0389 0.2675
vt 0.0318 0.2675
vt 0.0389 0.5056
vt 0.0389 0.029
vt 0.0318 0.029
vt 0.0389 0.2675
vt 0.0059 0.2615
vt 0.0059 0.5055
vt 0.0243 0.2615
vt 0.0059 0.0171
vt 0.0059 0.2615
vt 0.0243 0.0171
vt 0.0059 0.7499
vt 0.0059 0.9939
vt 0.0243 0.7499
vt 0.0059 0.5055
vt 0.0059 0.7499
vt 0.0243 0.5055
vt 0.0389 0.9822
vt 0.0419 0.7441
vt 0.0419 0.5056
vt 0.0419 0.026
vt 0.0389 0.029
vt 0.0419 0.2675
vt 0.0243 0.5055
vt 0.0272 0.5026
vt 0.0243 0.2615
vt 0.0243 0.7499
vt 0.0272 0.747
vt 0.0243 0.5055
vt 0.0243 0.9939
vt 0.0272 0.991
vt 0.0272 0.7529
vt 0.0243 0.2615
vt 0.0272 0.2586
vt 0.0243 0.0171
vt 0.2969 0.095
vt 0.0419 0.9851
vt 0.0419 0.7441
vt 0.0419 0.5056
vt 0.0419 0.2675
vt 0.0698 0.0329
vt 0.0694 0.5124
vt 0.0698 0.7509
vt 0.3056 0.0997
vt 0.1356 0.00919998
vt 0.9931 0.0273
vt 0.0941 0.66
vt 0.0961 0.1111
vt 0.1356 0.0867
vt 0.7787 0.0867
vt 0.6715 0.0726
vt 0.0318 0.9822
vt 0.0318 0.7441
vt 0.0318 0.5056
vt 0.0318 0.2675
vt 0.0243 0.5055
vt 0.0243 0.2615
vt 0.0243 0.9939
vt 0.0243 0.7499
vt 0.0419 0.9851
vt 0.0419 0.7441
vt 0.0389 0.5056
vt 0.0389 0.2675
vt 0.0272 0.2645
vt 0.0272 0.5085
vt 0.0243 0.7499
vt 0.0272 0.0201
vn -0.577349 0.577349 -0.577349
vn -0.577349 0.577349 0.577349
vn 0.577349 0.577349 -0.577349
vn -0.675558 -0.295114 -0.675649
vn -0.577349 0.577349 -0.577349
vn 0.675558 -0.295114 -0.675649
vn -0.675558 -0.295114 0.675649
vn -0.577319 0.577349 0.577349
vn 0.675558 -0.295114 0.675649
vn 0.577349 0.577319 0.577349
vn 0.675558 -0.295114 -0.675649
vn 0.577349 0.577349 -0.577349
vn 0.462691 -0.75634 0.462416
vn -0.462661 -0.75634 0.462416
vn 0.462691 -0.75634 0.462416
vn -0.462661 -0.75634 -0.462416
vn 0.462691 -0.75634 -0.462416
vn 0.217689 -0.951567 0.217017
vn 0.216498 -0.952025 -0.216224
vn -0.218329 -0.951201 0.217963
vn 0.217689 -0.951567 0.217017
vn -0.217078 -0.951659 -0.217139
vn -0.218329 -0.951201 0.217963
vn 0.216498 -0.952025 -0.216224
vn -0.217078 -0.951659 -0.217139
vn -0.382684 -0 0.923879
vn -0.338694 -0.465468 0.817682
vn -0.92388 -0 0.382683
vn 0.382685 -0 0.923879
vn 0.338694 -0.465468 0.817682
vn 0.92388 -0 0.382682
vn 0.817682 -0.465468 0.338694
vn 0.382685 -0 0.923879
vn 0.923879 0 -0.382684
vn 0.817682 -0.465468 -0.338694
vn 0.382682 0 -0.92388
vn 0.338694 -0.465468 -0.817682
vn -0.382683 0 -0.92388
vn -0.338694 -0.465468 -0.817682
vn -0.923879 0 -0.382684
vn -0.817682 -0.465468 -0.338694
vn -0.817682 -0.465468 0.338694
vn -0.382366 -0.038423 0.923185
vn -0.380474 -0.107059 0.918546
vn -0.923185 -0.038392 0.382366
vn 0.382397 -0.038423 0.923185
vn 0.380474 -0.107059 0.918546
vn 0.923185 -0.038423 0.382397
vn 0.918546 -0.107089 0.380474
vn 0.923185 -0.038392 -0.382397
vn 0.918546 -0.107089 -0.380474
vn 0.382397 -0.038423 -0.923185
vn 0.380474 -0.107059 -0.918546
vn -0.382366 -0.038423 -0.923185
vn -0.380474 -0.107059 -0.918546
vn -0.923185 -0.038392 -0.382397
vn -0.918546 -0.107059 -0.380474
vn -0.923185 -0.038392 0.382366
vn -0.918546 -0.107059 0.380474
vn -0.367779 -0.276437 0.887845
vn -0.147557 -0.755058 0.638813
vn -0.887875 -0.276406 0.367748
vn 0.367748 -0.276406 0.887875
vn 0.147252 -0.755058 0.638874
vn 0.887875 -0.276406 0.367748
vn 0.607868 -0.780114 0.147893
vn 0.887875 -0.276406 -0.367748
vn 0.607929 -0.780114 -0.147526
vn 0.367748 -0.276406 -0.887875
vn 0.14771 -0.785638 -0.600757
vn -0.367779 -0.276406 -0.887875
vn -0.148015 -0.785607 -0.600726
vn -0.887875 -0.276406 -0.367748
vn -0.637898 -0.755882 -0.147191
vn -0.887875 -0.276406 0.367748
vn -0.637837 -0.755852 0.147588
vn -0.147557 -0.755058 0.638813
vn -0.637837 -0.755852 0.147588
vn -0.637837 -0.755852 0.147588
vn -0.148015 -0.785607 -0.600726
vn -0.637898 -0.755882 -0.147191
vn 0.607929 -0.780114 -0.147526
vn 0.14771 -0.785638 -0.600757
vn 0.607868 -0.780114 0.147893
vn 0.147252 -0.755058 0.638874
vn 0.607868 -0.780114 0.147893
vn -0.382672 0 0.923856
vn -0.923856 0 0.382672
vn -0.338694 -0.465468 0.817682
vn 0.382672 0 0.923856
vn 0.338694 -0.465468 0.817682
vn 0.923856 0 0.382672
vn 0.817682 -0.465468 0.338694
vn 0.923856 0 -0.382672
vn 0.817682 -0.465468 -0.338694
vn 0.382672 0 -0.923856
vn -0.382672 0 -0.923856
vn 0.338694 -0.465468 -0.817682
vn -0.923856 0 -0.382672
vn -0.382672 0 -0.923856
vn -0.817682 -0.465468 -0.338694
vn -0.923856 0 0.382672
vn -0.817682 -0.465468 0.338694
vn -0.923185 -0.038392 0.382366
vn -0.35258 0.388623 0.851253
vn 0.35258 0.388623 0.851222
vn 0.851253 0.388623 0.35258
vn 0.851253 0.388623 -0.35258
vn 0.35258 0.388623 -0.851253
vn -0.35255 0.388623 -0.851253
vn -0.851253 0.388592 -0.35258
vn -0.851253 0.388592 0.35258
vn -0.918546 -0.107059 0.380474
vn -0.851253 0.388592 0.35258
vn -0.301492 0.904508 -0.301492
vn -0.301492 -0.904538 -0.301492
vn 0.301492 0.904508 -0.301492
vn -0.301492 0.904508 0.301492
vn -0.301492 -0.904538 0.301492
vn -0.301492 0.904508 -0.301492
vn 0.301492 0.904508 0.301492
vn 0.301492 -0.904508 0.301523
vn -0.301492 0.904508 0.301492
vn 0.301492 0.904508 -0.301492
vn 0.301492 -0.904508 -0.301523
vn 0.301492 0.904508 0.301492
vn -0.577349 0.577349 -0.577349
vn 0.577349 0.577349 -0.577349
vn -0.577349 -0.577349 -0.577319
vn -0.577349 0.577349 0.577349
vn -0.577349 0.577349 -0.577349
vn -0.577349 -0.577349 0.577319
vn 0.577349 0.577349 0.577349
vn -0.577349 0.577349 0.577349
vn 0.577319 -0.577319 0.577349
vn 0.577349 0.577349 -0.577349
vn 0.577349 0.577349 0.577349
vn 0.577319 -0.577319 -0.577349
vn 0.301492 0.904508 -0.301492
vn -0.577349 0.577349 -0.577349
vn -0.577319 0.577349 0.577349
vn 0.577349 0.577349 -0.577349
vn 0.301492 0.904508 -0.301492
vn 0.577349 0.577319 0.577349
vn 0.577319 -0.577319 -0.577349
vn 0.301492 -0.904508 -0.301523
vn -0.577349 -0.577349 -0.577319
vn 0.577319 -0.577319 0.577349
vn 0.301492 -0.904508 0.301523
vn 0.577319 -0.577319 -0.577349
vn -0.577349 -0.577349 0.577319
vn -0.301492 -0.904538 0.301492
vn 0.301492 -0.904508 0.301523
vn -0.577349 -0.577349 -0.577319
vn -0.301492 -0.904538 -0.301492
vn -0.577349 -0.577349 0.577319
vn 0.577349 0.577349 0.577349
vn 0.577349 0.577349 -0.577349
vn -0.577349 0.577349 -0.577349
vn -0.577319 0.577349 0.577349
vn 0.577349 0.577319 0.577349
vn 0.462691 -0.75634 -0.462416
vn -0.462661 -0.75634 0.462416
vn -0.462661 -0.75634 -0.462416
vn 0.338694 -0.465468 0.817682
vn -0.637837 -0.755852 0.147588
vn -0.887875 -0.276406 0.367748
vn -0.637898 -0.755882 -0.147191
vn 0.607929 -0.780114 -0.147526
vn -0.817682 -0.465468 0.338694
vn -0.338694 -0.465468 -0.817682
vn 0.382672 0 -0.923856
vn 0.301492 -0.904508 -0.301523
vn -0.301492 -0.904538 -0.301492
vn -0.301492 -0.904538 0.301492
vn 0.301492 -0.904508 0.301523
vn 0.577319 -0.577319 -0.577349
vn -0.577349 -0.577349 -0.577319
vn -0.577349 -0.577349 0.577319
vn 0.577319 -0.577319 0.577349
vn 0.577349 0.577349 -0.577349
vn -0.577349 0.577349 -0.577349
vn -0.301492 0.904508 0.301492
vn 0.301492 0.904508 0.301492
vn -0.301492 -0.904538 -0.301492
vn 0.301492 -0.904508 -0.301523
vn 0.577319 -0.577319 0.577349
vn -0.301492 -0.904538 0.301492
f 1/1/1 2/2/2 3/3/3
f 2/2/2 157/157/157 3/3/3
f 4/4/4 5/5/5 6/6/6
f 7/7/7 8/8/8 4/4/4
f 4/4/4 16/16/16 7/7/7
f 6/6/6 17/17/17 4/4/4
f 8/8/8 159/159/159 4/4/4
f 17/17/17 164/164/164 4/4/4
f 5/5/5 115/115/115 139/139/139
f 5/5/5 158/158/158 6/6/6
f 115/115/115 116/116/116 117/117/117
f 116/116/116 173/173/173 117/117/117
f 181/181/181 182/182/182 139/139/139
f 25/25/25 164/164/164 17/17/17
f 24/24/24 25/25/25 17/17/17
f 25/25/25 80/80/80 81/81/81
f 25/25/25 24/24/24 80/80/80
f 24/24/24 82/82/82 83/83/83
f 24/24/24 83/83/83 80/80/80
f 183/183/183 120/120/120 159/159/159
f 118/118/118 119/119/119 120/120/120
f 119/119/119 174/174/174 120/120/120
f 8/8/8 118/118/118 140/140/140
f 9/9/9 10/10/10 7/7/7
f 7/7/7 14/14/14 15/15/15
f 10/10/10 160/160/160 7/7/7
f 9/9/9 7/7/7 15/15/15
f 16/16/16 163/163/163 7/7/7
f 10/10/10 121/121/121 141/141/141
f 121/121/121 122/122/122 123/123/123
f 122/122/122 175/175/175 123/123/123
f 184/184/184 123/123/123 160/160/160
f 23/23/23 163/163/163 16/16/16
f 22/22/22 23/23/23 16/16/16
f 23/23/23 22/22/22 79/79/79
f 22/22/22 168/168/168 79/79/79
f 21/21/21 15/15/15 14/14/14
f 20/20/20 21/21/21 14/14/14
f 20/20/20 77/77/77 21/21/21
f 21/21/21 85/85/85 86/86/86
f 77/77/77 85/85/85 21/21/21
f 20/20/20 78/78/78 77/77/77
f 11/11/11 12/12/12 9/9/9
f 9/9/9 13/13/13 11/11/11
f 12/12/12 161/161/161 9/9/9
f 13/13/13 162/162/162 11/11/11
f 18/18/18 19/19/19 13/13/13
f 19/19/19 162/162/162 13/13/13
f 18/18/18 84/84/84 19/19/19
f 84/84/84 169/169/169 19/19/19
f 143/143/143 126/126/126 161/161/161
f 142/142/142 143/143/143 144/144/144
f 124/124/124 125/125/125 126/126/126
f 125/125/125 176/176/176 126/126/126
f 26/26/26 27/27/27 28/28/28
f 29/29/29 30/30/30 26/26/26
f 30/30/30 27/27/27 26/26/26
f 27/27/27 42/42/42 28/28/28
f 28/28/28 42/42/42 40/40/40
f 42/42/42 41/41/41 40/40/40
f 40/40/40 41/41/41 38/38/38
f 41/41/41 39/39/39 38/38/38
f 38/38/38 39/39/39 36/36/36
f 39/39/39 37/37/37 36/36/36
f 36/36/36 37/37/37 34/34/34
f 37/37/37 35/35/35 34/34/34
f 34/34/34 35/35/35 31/31/31
f 35/35/35 32/32/32 31/31/31
f 31/31/31 32/32/32 33/33/33
f 32/32/32 165/165/165 33/33/33
f 43/43/43 44/44/44 45/45/45
f 43/43/43 104/104/104 87/87/87
f 46/46/46 43/43/43 87/87/87
f 43/43/43 46/46/46 44/44/44
f 44/44/44 113/113/113 45/45/45
f 45/45/45 88/88/88 87/87/87
f 87/87/87 88/88/88 89/89/89
f 90/90/90 87/87/87 91/91/91
f 87/87/87 89/89/89 91/91/91
f 90/90/90 46/46/46 87/87/87
f 46/46/46 47/47/47 44/44/44
f 48/48/48 46/46/46 90/90/90
f 46/46/46 48/48/48 47/47/47
f 92/92/92 90/90/90 93/93/93
f 90/90/90 91/91/91 93/93/93
f 92/92/92 48/48/48 90/90/90
f 48/48/48 49/49/49 47/47/47
f 50/50/50 48/48/48 94/94/94
f 48/48/48 50/50/50 49/49/49
f 48/48/48 92/92/92 94/94/94
f 94/94/94 92/92/92 95/95/95
f 92/92/92 93/93/93 95/95/95
f 96/96/96 94/94/94 95/95/95
f 50/50/50 94/94/94 172/172/172
f 98/98/98 96/96/96 95/95/95
f 97/97/97 96/96/96 98/98/98
f 52/52/52 50/50/50 96/96/96
f 52/52/52 96/96/96 100/100/100
f 171/171/171 97/97/97 98/98/98
f 54/54/54 52/52/52 97/97/97
f 97/97/97 171/171/171 101/101/101
f 54/54/54 97/97/97 99/99/99
f 52/52/52 53/53/53 50/50/50
f 54/54/54 55/55/55 52/52/52
f 55/55/55 53/53/53 52/52/52
f 56/56/56 57/57/57 54/54/54
f 56/56/56 54/54/54 99/99/99
f 57/57/57 55/55/55 54/54/54
f 110/110/110 109/109/109 55/55/55
f 109/109/109 53/53/53 55/55/55
f 110/110/110 55/55/55 57/57/57
f 53/53/53 51/51/51 50/50/50
f 53/53/53 109/109/109 51/51/51
f 50/50/50 51/51/51 49/49/49
f 109/109/109 108/108/108 51/51/51
f 51/51/51 108/108/108 49/49/49
f 69/69/69 67/67/67 109/109/109
f 71/71/71 69/69/69 109/109/109
f 67/67/67 108/108/108 109/109/109
f 110/110/110 71/71/71 109/109/109
f 67/67/67 65/65/65 108/108/108
f 108/108/108 107/107/107 49/49/49
f 65/65/65 107/107/107 108/108/108
f 49/49/49 107/107/107 47/47/47
f 65/65/65 63/63/63 107/107/107
f 107/107/107 106/106/106 47/47/47
f 63/63/63 106/106/106 107/107/107
f 65/65/65 66/66/66 63/63/63
f 67/67/67 68/68/68 65/65/65
f 68/68/68 66/66/66 65/65/65
f 63/63/63 64/64/64 60/60/60
f 63/63/63 60/60/60 106/106/106
f 66/66/66 64/64/64 63/63/63
f 106/106/106 105/105/105 44/44/44
f 60/60/60 105/105/105 106/106/106
f 47/47/47 106/106/106 44/44/44
f 60/60/60 61/61/61 62/62/62
f 60/60/60 62/62/62 105/105/105
f 64/64/64 61/61/61 60/60/60
f 105/105/105 112/112/112 113/113/113
f 62/62/62 112/112/112 105/105/105
f 44/44/44 105/105/105 113/113/113
f 61/61/61 166/166/166 62/62/62
f 70/70/70 68/68/68 67/67/67
f 69/69/69 70/70/70 67/67/67
f 71/71/71 72/72/72 70/70/70
f 69/69/69 71/71/71 70/70/70
f 73/73/73 71/71/71 110/110/110
f 71/71/71 73/73/73 72/72/72
f 73/73/73 74/74/74 72/72/72
f 75/75/75 73/73/73 111/111/111
f 73/73/73 167/167/167 74/74/74
f 111/111/111 73/73/73 110/110/110
f 111/111/111 110/110/110 57/57/57
f 114/114/114 111/111/111 59/59/59
f 114/114/114 75/75/75 111/111/111
f 111/111/111 57/57/57 59/59/59
f 75/75/75 76/76/76 74/74/74
f 58/58/58 59/59/59 56/56/56
f 59/59/59 57/57/57 56/56/56
f 58/58/58 56/56/56 102/102/102
f 56/56/56 99/99/99 102/102/102
f 102/102/102 99/99/99 103/103/103
f 99/99/99 100/100/100 101/101/101
f 99/99/99 101/101/101 103/103/103
f 88/88/88 170/170/170 89/89/89
f 127/127/127 128/128/128 129/129/129
f 128/128/128 177/177/177 129/129/129
f 130/130/130 131/131/131 132/132/132
f 131/131/131 178/178/178 132/132/132
f 133/133/133 134/134/134 135/135/135
f 134/134/134 179/179/179 135/135/135
f 136/136/136 137/137/137 138/138/138
f 137/137/137 180/180/180 138/138/138
f 145/145/145 146/146/146 147/147/147
f 146/146/146 185/185/185 147/147/147
f 148/148/148 149/149/149 150/150/150
f 149/149/149 186/186/186 150/150/150
f 151/151/151 152/152/152 153/153/153
f 187/187/187 151/151/151 153/153/153
f 154/154/154 155/155/155 156/156/156
f 155/155/155 188/188/188 156/156/156

